<svg id="Flat_Color" data-name="Flat Color" xmlns="http://www.w3.org/2000/svg" width="13.963" height="15.432" viewBox="0 0 13.963 15.432">
  <path id="Tracé_151" data-name="Tracé 151" d="M12.443,3.286H8.635A.643.643,0,0,1,8.635,2h3.808a.643.643,0,0,1,0,1.286Z" transform="translate(-3.557 -2)" fill="#e63946"/>
  <path id="Tracé_152" data-name="Tracé 152" d="M13.16,16.288h-4.9C6.461,16.288,5,15.136,5,13.716V6H16.424v7.716C16.424,15.136,14.963,16.288,13.16,16.288Z" transform="translate(-3.731 -0.856)" fill="#e63946"/>
  <path id="Tracé_153" data-name="Tracé 153" d="M16.187,7.286H3.776A.719.719,0,0,1,3,6.643.719.719,0,0,1,3.776,6H16.187a.719.719,0,0,1,.776.643A.719.719,0,0,1,16.187,7.286Z" transform="translate(-3 -2.857)" fill="#c9273a"/>
  <g id="Groupe_4161" data-name="Groupe 4161" transform="translate(5.077 6.859)">
    <path id="Tracé_154" data-name="Tracé 154" d="M9.635,15.144A.639.639,0,0,1,9,14.5V10.643a.635.635,0,1,1,1.269,0V14.5A.639.639,0,0,1,9.635,15.144Z" transform="translate(-9 -10)" fill="#edebea"/>
    <path id="Tracé_155" data-name="Tracé 155" d="M13.635,15.144A.639.639,0,0,1,13,14.5V10.643a.635.635,0,1,1,1.269,0V14.5A.639.639,0,0,1,13.635,15.144Z" transform="translate(-10.461 -10)" fill="#edebea"/>
  </g>
</svg>
