<svg xmlns="http://www.w3.org/2000/svg" width="18.403" height="23" viewBox="0 0 18.403 23">
  <path id="delete" d="M56.545.645a.638.638,0,0,1,.638-.638h6.379A.639.639,0,0,1,64.2.645V2.222H56.545ZM67.033,22.093a.977.977,0,0,1-.982.913H54.62a.987.987,0,0,1-.982-.917L52.66,7.78H68.077L67.033,22.092ZM69.574,6.484h-18.4V5a1.484,1.484,0,0,1,1.483-1.483H68.091A1.485,1.485,0,0,1,69.573,5V6.484ZM57.409,19.595a.648.648,0,1,0,1.3,0V10.509a.648.648,0,1,0-1.3,0v9.086Zm4.623,0a.648.648,0,1,0,1.3,0V10.509a.648.648,0,1,0-1.3,0Z" transform="translate(-51.171 -0.006)" fill="#c9283a" fill-rule="evenodd"/>
</svg>
