<svg xmlns="http://www.w3.org/2000/svg" width="160.47" height="80.003" viewBox="0 0 160.47 80.003">
  <g id="Groupe_30" data-name="Groupe 30" transform="translate(-360 -252.284)">
    <path id="Tracé_173" data-name="Tracé 173" d="M454.184,327.639h6.509s-.42,4.2-6.839,3.888c-6.673-.329-7.823-6.121-7.8-8.156a8.009,8.009,0,0,1,7.8-7.909,8.486,8.486,0,0,1,7.333,3.3l3.254-3.337a12.843,12.843,0,0,0-10.249-4.561A12.676,12.676,0,0,0,441.365,323.5c0,7.08,4.909,12.818,12.818,12.818,7.079,0,12.314-5.134,12.159-13.072H454.184Z" transform="translate(-36.421 -26.22)" fill="#1c3694"/>
    <path id="Tracé_174" data-name="Tracé 174" d="M505.394,327.989l-10.025-15.808h-4.7v23.975h4.7V320.182l10.025,15.974h4.228V312.181h-4.228Z" transform="translate(-58.492 -26.811)" fill="#1c3694"/>
    <path id="Tracé_175" data-name="Tracé 175" d="M537.766,326.706l3.281-8.785,3.387,8.785Zm.754-14.525L529.4,336.156h4.833l2.011-5.383H546l2.075,5.383h5.272l-9.667-23.975Z" transform="translate(-75.829 -26.811)" fill="#1c3694"/>
    <rect id="Rectangle_20" data-name="Rectangle 20" width="8.566" height="3.186" transform="translate(479.391 300.776)" fill="#1c3694"/>
    <path id="Tracé_176" data-name="Tracé 176" d="M445.257,369.848H447.8l-.783-2.078q-.358-.946-.532-1.555a9.57,9.57,0,0,1-.4,1.432Zm-2.164,3.08,2.881-7.5h1.069l3.069,7.5h-1.131l-.875-2.272h-3.136l-.824,2.272Z" transform="translate(-37.194 -50.646)" fill="#1c3694"/>
    <path id="Tracé_177" data-name="Tracé 177" d="M468.469,372.882l.911-.143a1.271,1.271,0,0,0,.427.839,1.489,1.489,0,0,0,.98.292,1.439,1.439,0,0,0,.941-.258.773.773,0,0,0,.307-.607.56.56,0,0,0-.271-.491,3.989,3.989,0,0,0-.941-.312,8.534,8.534,0,0,1-1.4-.442,1.342,1.342,0,0,1-.8-1.246,1.4,1.4,0,0,1,.166-.673,1.487,1.487,0,0,1,.453-.514,1.885,1.885,0,0,1,.585-.269,2.8,2.8,0,0,1,.8-.11,3.138,3.138,0,0,1,1.124.184,1.526,1.526,0,0,1,.714.5,1.947,1.947,0,0,1,.317.841l-.9.123a.984.984,0,0,0-.356-.655,1.3,1.3,0,0,0-.831-.235,1.508,1.508,0,0,0-.906.21.611.611,0,0,0-.271.491.506.506,0,0,0,.113.322.806.806,0,0,0,.353.246q.138.051.814.235a11.355,11.355,0,0,1,1.364.427,1.379,1.379,0,0,1,.606.483,1.347,1.347,0,0,1,.22.788,1.547,1.547,0,0,1-.268.867,1.734,1.734,0,0,1-.775.629,2.819,2.819,0,0,1-1.146.223,2.553,2.553,0,0,1-1.614-.44,2.045,2.045,0,0,1-.709-1.3" transform="translate(-48.553 -52.221)" fill="#1c3694"/>
    <path id="Tracé_178" data-name="Tracé 178" d="M490.067,372.882l.911-.143a1.272,1.272,0,0,0,.427.839,1.489,1.489,0,0,0,.98.292,1.438,1.438,0,0,0,.941-.258.772.772,0,0,0,.307-.607.56.56,0,0,0-.271-.491,3.978,3.978,0,0,0-.941-.312,8.533,8.533,0,0,1-1.4-.442,1.342,1.342,0,0,1-.8-1.246,1.4,1.4,0,0,1,.166-.673,1.492,1.492,0,0,1,.453-.514,1.892,1.892,0,0,1,.585-.269,2.8,2.8,0,0,1,.8-.11,3.137,3.137,0,0,1,1.123.184,1.526,1.526,0,0,1,.714.5,1.946,1.946,0,0,1,.317.841l-.9.123a.984.984,0,0,0-.356-.655,1.3,1.3,0,0,0-.831-.235,1.507,1.507,0,0,0-.906.21.61.61,0,0,0-.271.491.505.505,0,0,0,.112.322.807.807,0,0,0,.353.246q.138.051.814.235a11.325,11.325,0,0,1,1.364.427,1.378,1.378,0,0,1,.606.483,1.347,1.347,0,0,1,.22.788,1.547,1.547,0,0,1-.269.867,1.733,1.733,0,0,1-.775.629,2.818,2.818,0,0,1-1.146.223,2.553,2.553,0,0,1-1.614-.44,2.044,2.044,0,0,1-.709-1.3" transform="translate(-58.221 -52.221)" fill="#1c3694"/>
    <path id="Tracé_179" data-name="Tracé 179" d="M515.876,374.6v-.8a1.99,1.99,0,0,1-1.724.921,2.2,2.2,0,0,1-.9-.184,1.485,1.485,0,0,1-.619-.463,1.737,1.737,0,0,1-.284-.683,4.668,4.668,0,0,1-.056-.859v-3.367h.921v3.014a5.427,5.427,0,0,0,.056.972.964.964,0,0,0,.368.571,1.143,1.143,0,0,0,.7.207,1.517,1.517,0,0,0,.778-.212,1.179,1.179,0,0,0,.514-.578,2.9,2.9,0,0,0,.151-1.061v-2.912h.921V374.6Z" transform="translate(-68.171 -52.321)" fill="#1c3694"/>
    <path id="Tracé_180" data-name="Tracé 180" d="M534.975,374.5V369.07h.829v.824a2.239,2.239,0,0,1,.585-.762,1.02,1.02,0,0,1,.591-.184,1.794,1.794,0,0,1,.946.3l-.317.855a1.316,1.316,0,0,0-.676-.2.876.876,0,0,0-.542.182.981.981,0,0,0-.343.5,3.588,3.588,0,0,0-.154,1.074V374.5Z" transform="translate(-78.323 -52.221)" fill="#1c3694"/>
    <path id="Tracé_181" data-name="Tracé 181" d="M556.639,371.776a6.73,6.73,0,0,1-1.5.348,3.461,3.461,0,0,0-.8.184.8.8,0,0,0-.363.3.813.813,0,0,0,.151,1.051,1.2,1.2,0,0,0,.816.246,1.9,1.9,0,0,0,.946-.233,1.43,1.43,0,0,0,.609-.637,2.227,2.227,0,0,0,.148-.921Zm.077,2.057a3.419,3.419,0,0,1-.985.614,2.834,2.834,0,0,1-1.016.18,1.975,1.975,0,0,1-1.376-.437,1.444,1.444,0,0,1-.481-1.118,1.486,1.486,0,0,1,.182-.729,1.506,1.506,0,0,1,.476-.53,2.241,2.241,0,0,1,.663-.3,6.467,6.467,0,0,1,.819-.138,8.46,8.46,0,0,0,1.642-.317c0-.127,0-.207,0-.241a1.015,1.015,0,0,0-.261-.793,1.54,1.54,0,0,0-1.049-.312,1.628,1.628,0,0,0-.96.228,1.392,1.392,0,0,0-.458.806l-.9-.123a2.229,2.229,0,0,1,.4-.934,1.767,1.767,0,0,1,.814-.547,3.621,3.621,0,0,1,1.233-.192,3.258,3.258,0,0,1,1.131.164,1.484,1.484,0,0,1,.64.412,1.439,1.439,0,0,1,.286.626,5.142,5.142,0,0,1,.046.85v1.228a13.083,13.083,0,0,0,.059,1.625,2.057,2.057,0,0,0,.233.652H556.9a1.947,1.947,0,0,1-.184-.671" transform="translate(-86.328 -52.221)" fill="#1c3694"/>
    <path id="Tracé_182" data-name="Tracé 182" d="M576.086,374.5V369.07h.829v.773a1.952,1.952,0,0,1,1.729-.9,2.268,2.268,0,0,1,.9.176,1.42,1.42,0,0,1,.616.463,1.778,1.778,0,0,1,.287.681,5.235,5.235,0,0,1,.052.895V374.5h-.921V371.2a2.489,2.489,0,0,0-.107-.841.889.889,0,0,0-.381-.445,1.214,1.214,0,0,0-.643-.166,1.49,1.49,0,0,0-1.015.373,1.842,1.842,0,0,0-.427,1.417V374.5Z" transform="translate(-96.726 -52.221)" fill="#1c3694"/>
    <path id="Tracé_183" data-name="Tracé 183" d="M602.066,372.513l.905.118a2.348,2.348,0,0,1-.76,1.465,2.212,2.212,0,0,1-1.5.53,2.332,2.332,0,0,1-1.793-.729,2.957,2.957,0,0,1-.678-2.09,3.781,3.781,0,0,1,.292-1.54,2.033,2.033,0,0,1,.888-.99,2.634,2.634,0,0,1,1.3-.33,2.256,2.256,0,0,1,1.448.447,2.055,2.055,0,0,1,.721,1.272l-.9.138a1.484,1.484,0,0,0-.453-.824,1.173,1.173,0,0,0-.785-.276,1.429,1.429,0,0,0-1.131.5,2.367,2.367,0,0,0-.435,1.578,2.445,2.445,0,0,0,.42,1.591,1.364,1.364,0,0,0,1.095.5,1.289,1.289,0,0,0,.905-.332,1.648,1.648,0,0,0,.461-1.023" transform="translate(-106.642 -52.221)" fill="#1c3694"/>
    <path id="Tracé_184" data-name="Tracé 184" d="M620.792,371.265h3.034a1.846,1.846,0,0,0-.347-1.028,1.414,1.414,0,0,0-1.141-.532,1.464,1.464,0,0,0-1.067.425,1.679,1.679,0,0,0-.478,1.136m3.024,1.489.952.118a2.319,2.319,0,0,1-.834,1.294,2.824,2.824,0,0,1-3.445-.273,2.868,2.868,0,0,1-.7-2.059,3,3,0,0,1,.707-2.129,2.39,2.39,0,0,1,1.832-.757,2.323,2.323,0,0,1,1.78.742,2.947,2.947,0,0,1,.69,2.087q0,.082,0,.245h-4.052a2.091,2.091,0,0,0,.506,1.372,1.509,1.509,0,0,0,1.136.476,1.41,1.41,0,0,0,.865-.266,1.77,1.77,0,0,0,.568-.849" transform="translate(-116.288 -52.222)" fill="#1c3694"/>
    <path id="Tracé_185" data-name="Tracé 185" d="M642.341,372.882l.911-.143a1.272,1.272,0,0,0,.427.839,1.488,1.488,0,0,0,.98.292,1.438,1.438,0,0,0,.941-.258.773.773,0,0,0,.307-.607.56.56,0,0,0-.271-.491,3.981,3.981,0,0,0-.941-.312,8.519,8.519,0,0,1-1.4-.442,1.342,1.342,0,0,1-.8-1.246,1.4,1.4,0,0,1,.166-.673,1.485,1.485,0,0,1,.453-.514,1.885,1.885,0,0,1,.586-.269,2.8,2.8,0,0,1,.8-.11,3.136,3.136,0,0,1,1.123.184,1.527,1.527,0,0,1,.714.5,1.944,1.944,0,0,1,.317.841l-.9.123a.984.984,0,0,0-.355-.655,1.3,1.3,0,0,0-.832-.235,1.507,1.507,0,0,0-.906.21.61.61,0,0,0-.271.491.506.506,0,0,0,.112.322.808.808,0,0,0,.353.246q.139.051.814.235a11.318,11.318,0,0,1,1.364.427,1.377,1.377,0,0,1,.606.483,1.347,1.347,0,0,1,.22.788,1.547,1.547,0,0,1-.269.867,1.733,1.733,0,0,1-.775.629,2.819,2.819,0,0,1-1.146.223,2.554,2.554,0,0,1-1.614-.44,2.046,2.046,0,0,1-.709-1.3" transform="translate(-126.383 -52.221)" fill="#1c3694"/>
    <rect id="Rectangle_21" data-name="Rectangle 21" width="4.764" height="23.975" transform="translate(515.469 285.369)" fill="#ff8708"/>
    <path id="Tracé_186" data-name="Tracé 186" d="M615.206,320.088h4.979s-.98-9.768-12.226-8.159a9.125,9.125,0,0,0-4.254,1.947c-2.423,1.86-4.6,5.342-4.068,11.98.712,8.851,8.3,10.107,8.3,10.107s10.127,2.129,12.075-8.487h-4.856a4.965,4.965,0,0,1-5.167,4.4c-4.743,0-5.42-5.223-5.392-8.357s1.214-7.538,5.957-7.651c4.037-.028,4.654,4.215,4.654,4.215" transform="translate(-107.231 -26.618)" fill="#ff8708"/>
    <path id="Tracé_187" data-name="Tracé 187" d="M390.989,309.344l28.781-21.86-7.407-35.2Z" transform="translate(-13.871 0)" fill="#1c3694"/>
    <path id="Tracé_188" data-name="Tracé 188" d="M388.677,293.77,360,315.637l7.159,35.221Z" transform="translate(0 -18.57)" fill="#ff8708"/>
  </g>
</svg>
